<?xml version="1.0" standalone="no"?>
<!DOCTYPE svg PUBLIC "-//W3C//DTD SVG 20010904//EN"
 "http://www.w3.org/TR/2001/REC-SVG-20010904/DTD/svg10.dtd">
<svg version="1.0" xmlns="http://www.w3.org/2000/svg"
 width="20px" height="20px" viewBox="0 0 24.000000 24.000000"
 preserveAspectRatio="xMidYMid meet">

<g transform="translate(0.000000,24.000000) scale(0.100000,-0.100000)"
fill="#000000" stroke="none">
<path d="M4 227 c-2 -7 -3 -56 -2 -107 l3 -94 39 -15 c35 -13 40 -13 50 1 7 9
23 18 36 20 21 2 25 9 28 43 4 44 -14 39 -20 -5 -1 -14 -11 -26 -20 -28 -14
-3 -17 9 -20 87 -3 89 -2 91 20 91 17 0 22 -6 22 -24 0 -14 5 -28 11 -31 7 -5
9 6 7 31 l-3 39 -73 3 c-54 2 -74 -1 -78 -11z m54 -13 c21 -6 22 -11 22 -101
0 -94 0 -95 -22 -89 -13 3 -26 6 -30 6 -5 0 -8 43 -8 95 0 52 3 95 8 95 4 0
17 -3 30 -6z"/>
<path d="M190 172 c0 -6 6 -14 13 -19 7 -5 -5 -10 -33 -14 l-45 -6 44 -1 c38
-2 42 -4 31 -17 -21 -25 -5 -27 18 -2 l22 23 -25 24 c-14 13 -25 18 -25 12z"/>
</g>
</svg>
